<?xml version="1.0" encoding="UTF-8"?>
<svg id="Layer_1" xmlns="http://www.w3.org/2000/svg" version="1.1" viewBox="0 0 1111.9 116.8">
  <!-- Generator: Adobe Illustrator 29.5.0, SVG Export Plug-In . SVG Version: 2.1.0 Build 137)  -->
  <defs>
    <style>
      .st0 {
        fill: #231f20;
      }

      .st1 {
        fill: #881d22;
      }
    </style>
  </defs>
  <g>
    <path class="st0" d="M52.4,116.2c-5.2,0-10.3-.8-15.2-2.4-2.6-.8-4.8-1.7-6.4-2.7-2.4-1.4-4.6-2.7-6.6-3.9-7.8-5.1-13.8-11.8-17.9-20.1C2.1,79.1,0,70.6,0,61.6s1.2-13.1,3.5-19c2.1-5.8,5.5-11.3,10.2-16.6,4.6-5,10.4-9.1,17.4-12.2.9-.4,2.4-1,4.2-1.7l1.1-.3c2.1-.7,4.1-1.3,6.1-1.7,2.5-.6,4.6-1,6.3-1.3h.5c2.7-.2,4.7-.3,5.8-.3,11.4,0,21.2,2,29.5,6.1V5.8h3.6v39.2h-3.6v-10c-1-6.8-3.8-11.9-8.2-15.2-4.5-3.3-8.9-5.5-13.2-6.4-4.5-.9-8.1-1.4-10.8-1.4-4.8,0-9.1.6-12.9,1.9-4.2,1.5-8,3.5-11.3,6-6.4,4.4-11.3,10.2-14.6,17.3-3.2,6.9-4.9,14.5-4.9,22.9s.4,8.5,1.3,12.7c.8,4.2,2.1,8.2,3.9,12.1,3.6,7.9,8.6,14.2,15.2,19,3.6,2.4,7.3,4.2,11.1,5.5,3.8,1.4,7.8,2,12.1,2s11.9-1,18.2-3c6.5-1.9,12.8-5.8,18.8-11.8l2.2,3.8c-9.4,10.6-22.5,15.9-39.2,15.9Z"/>
    <path class="st0" d="M136.1,112.8v-2.7c-6.2,3.2-12,4.9-17.4,4.9s-11.7-2.3-15.5-6.8c-4-4.5-6-9.7-6-15.5s.9-7.6,2.8-11.1c1.7-3.6,4.4-6.5,8.2-8.9,1.8-1,3.9-2,6.4-2.8,2.2-.7,4.7-1.1,7.4-1.1,6.5,0,11.2,1,14.1,3l.5-1.6v-3c0-2,0-3.5-.2-4.4-.1-1.3-.4-2.7-.9-4.2-.8-3-2.4-5.6-4.6-7.7-2.4-2.1-5.6-3.1-9.6-3.1-7.7,1.5-12.8,3.9-15.2,7.4-2.4,3.7-3.6,6.4-3.6,8.3v7.5h-3.3v-29.4h3.6v11.1c1-1.2,3.3-2.9,6.8-5.2,3.6-2.3,7.9-3.5,12.9-3.5s7.4,1.1,11.6,3.3c4.4,2.4,7.1,7.2,8.2,14.4v41c0,4.3,2.1,6.4,6.4,6.4h3.3v3.6h-15.9ZM136.1,79.5c-1.5-2.2-3.5-3.8-6-4.9-2.6-1.2-5.3-1.7-8.2-1.7h-2.2l-.9.2c-.8.2-1.5.4-1.9.5-1.2.2-2.6.8-4.4,1.7-3,1.5-5.4,3.6-7.1,6.3-1.8,3-2.7,6.5-2.7,10.4s.4,4.9,1.3,7.1c.7,2,1.9,3.9,3.6,5.8,2.8,2.9,6.5,4.7,11,5.3,6.5,0,12.3-2,17.4-6.1v-24.5Z"/>
    <path class="st0" d="M195,70.8v-10.4c0-1.8-.6-4-1.9-6.6-1.3-2.6-4-3.9-8.2-3.9s-7.1,1.3-9.4,3.9c-1.8,2.1-3.1,4.1-3.9,6.1v41.8c0,4.9,2.1,7.4,6.3,7.4h2.4v3.6h-23.4v-3.6h7.4v-50.6l-4.4,4.9-3-2.7,18.2-18.5,2.7,2.2-6.1,6.1v3.3c4.1-5.8,9.1-8.6,15.1-8.6s5.9.7,8.3,2.2v-6h3.6v29.4h-3.6Z"/>
    <path class="st0" d="M261.9,102.6c-3.5,3.6-7.3,6.2-11.5,7.8-2.3.9-4.8,1.7-7.5,2.4-2.6.6-5.5.9-8.6.9s-7.7-.4-10.5-1.1c-3.4-.8-6.2-2-8.5-3.6-4.7-3.1-8.2-6.9-10.4-11.3-2.1-4.1-3.6-8-4.4-11.8l-.6-4.4-.2-3.5c0-2.5.7-6.1,2-10.8,1.5-5.1,5-10,10.7-14.8,5.8-4.9,14.2-7.4,25.4-7.4h2.2l.5.2c.6.1,1.1.2,1.4.2.2.1.6.2,1.1.2s.5,0,.9.2h.5c1.3.2,2.3.5,3.1.8,4.2.8,8.4,2.7,12.6,5.7,4.3,3.1,7.1,7.7,8.3,13.8h-60c-1.8,4.1-2.7,8.1-2.7,12.1,0,6.7,1.9,13.5,5.8,20.3,3.8,7,11.5,10.5,23.1,10.5s4.7-.4,8.3-1.1c4.1-.8,8.4-2.7,12.9-5.7,4.6-3,8-7.7,10.2-14l3.6,1.3c-2,5.2-4.6,9.6-7.9,13.2ZM247,53.1c-4.1-1.4-7.2-2-9.4-2-5.2,0-9.8.7-13.7,2.2-3.6,1.5-6.3,3-8.3,4.6-1.9,1.6-3,2.7-3.5,3.3h44.1c-2-3.9-5.1-6.5-9.3-8Z"/>
    <path class="st1" d="M350.6,90.8c-.8,3.7-2.5,7.3-5,11-2.5,3.8-6.5,7-11.9,9.6-5.5,2.7-12.5,4.1-20.9,4.1s-19.7-2.6-25.6-7.9c-5.9-5.2-9.6-10.5-11.3-15.7l-2-7.1c-.3-2.1-.5-3.7-.5-4.9,0-3.5.6-7.1,1.9-11,1-3.8,3.7-7.4,7.9-11,2.2-1.8,4.8-3.2,7.7-4.2,2.8-1,6.1-1.6,9.7-1.6s5.8.5,8.3,1.6c2.9,1.3,5.2,2.6,6.9,4.1,1.8,1.6,3.3,3.5,4.7,5.8,1.3,2.2,1.9,4.4,1.9,6.6s-1.2,5.4-3.5,7.4c-2.5,2.2-6.2,3.7-11,4.4v-3.8c4.6-2.1,6.9-5.1,6.9-8.9s-1.4-8.7-4.2-10.4c-2.9-1.7-6.4-2.5-10.5-2.5s-4,.5-6.8,1.4c-2.5.9-5.1,3.1-7.7,6.4-2.5,3.5-3.8,8.5-3.8,15.2s1.4,9.8,4.2,14.8c2.6,4.8,6.4,8.8,11.5,11.9,4.8,2.9,10,4.4,15.7,4.4s5.4-.3,8.8-.8c3.1-.5,6.2-1.7,9.3-3.6,3.5-2,6.3-4.9,8.6-8.8,2.3-3.9,3.5-8.9,3.5-15.2s-.7-6.9-2.2-10.4c-1.4-3-3.5-5.4-6.3-7.1-8.1-4.3-14.6-8.4-19.6-12.2-5.4-4-9.4-7.5-11.9-10.7-2.4-3-4.2-5.8-5.5-8.2-.9-2.2-1.4-4.1-1.4-5.8l.2-1.3.3-.9c0-7.3,2.5-12.3,7.4-15.1,4.9-2.5,9.9-3.8,14.9-3.8s7,1,9.6,3V3.5h3.6v40.5h-3.6v-16.3c0-4.2-.8-7.9-2.4-11.1-1.6-3.3-4.9-5-9.9-5s-9.7,1.7-11.5,5.2c-1.8,3.6-2.7,6.4-2.7,8.6,0,3.9,1.5,7.6,4.4,11.3,3,3.8,7.4,7.1,13.2,9.9,1.6,1,4.5,2.7,8.8,5,4.7,2.7,8.5,5.1,11.3,7.2,2.9,2.2,5.7,5.2,8.2,9.1,2.3,3.7,3.5,8.2,3.5,13.5s-.4,6.1-1.1,9.4Z"/>
    <path class="st0" d="M408.4,112.8v-3.6h6.3v-45.2c0-1.6,0-2.7-.2-3.5v-.3c-.2-1-.5-1.9-.8-2.5-.4-1.7-1.2-3.3-2.2-4.9-1.7-2.6-4-3.9-6.9-3.9-3.6.3-5.9,2.1-6.9,5.3-.6,1.8-1,3.2-1.1,4.4-.3,1.6-.5,3.1-.5,4.6v38.6c0,4.9,2.3,7.4,6.9,7.4h3v3.6h-23.4v-3.6h6.1v-46c0-5.9-.6-9.7-1.9-11.6-1.3-1.8-2.7-2.7-4.4-2.7-3.5,0-6.1,1.2-8,3.5-1.9,2.3-2.8,5.7-2.8,10.2v39.2c0,4.9,2.2,7.4,6.6,7.4h2v3.6h-23.4v-3.6h7.4v-55.1l-6.9,6.9-2.8-2.5,18.2-18.2,2.7,2.7-4.6,4.7v3.9c.6-1.3,2-2.8,4.2-4.7,2.1-1.8,4.9-2.7,8.3-2.7s8.8,2,12.7,6.1c.9-1.5,2.6-2.8,4.9-4.1l.8-.3c1-.5,1.8-.8,2.4-.9,1.5-.2,2.6-.3,3.5-.3,9.5,0,14.3,6.3,14.3,19v36.9c0,3.4.7,5.7,2,7.1,1.5,1,3,1.6,4.6,1.6h3.3v3.6h-23.4Z"/>
    <path class="st0" d="M473.5,112.8v-2.7c-6.2,3.2-12,4.9-17.4,4.9s-11.7-2.3-15.5-6.8c-4-4.5-6-9.7-6-15.5s.9-7.6,2.8-11.1c1.7-3.6,4.4-6.5,8.2-8.9,1.8-1,3.9-2,6.4-2.8,2.2-.7,4.7-1.1,7.4-1.1,6.5,0,11.2,1,14.1,3l.5-1.6v-3c0-2,0-3.5-.2-4.4-.1-1.3-.4-2.7-.9-4.2-.8-3-2.4-5.6-4.6-7.7-2.4-2.1-5.6-3.1-9.6-3.1-7.7,1.5-12.8,3.9-15.2,7.4-2.4,3.7-3.6,6.4-3.6,8.3v7.5h-3.3v-29.4h3.6v11.1c1-1.2,3.3-2.9,6.8-5.2,3.6-2.3,7.8-3.5,12.9-3.5s7.4,1.1,11.6,3.3c4.4,2.4,7.1,7.2,8.2,14.4v41c0,4.3,2.1,6.4,6.4,6.4h3.3v3.6h-15.9ZM473.5,79.5c-1.5-2.2-3.5-3.8-6-4.9-2.6-1.2-5.3-1.7-8.2-1.7h-2.2l-.9.2c-.8.2-1.5.4-1.9.5-1.2.2-2.6.8-4.4,1.7-3,1.5-5.4,3.6-7.1,6.3-1.8,3-2.7,6.5-2.7,10.4s.4,4.9,1.3,7.1c.7,2,1.9,3.9,3.6,5.8,2.8,2.9,6.5,4.7,11,5.3,6.5,0,12.3-2,17.4-6.1v-24.5Z"/>
    <path class="st0" d="M532.4,70.8v-10.4c0-1.8-.6-4-1.9-6.6-1.3-2.6-4-3.9-8.2-3.9s-7.1,1.3-9.4,3.9c-1.8,2.1-3.1,4.1-3.9,6.1v41.8c0,4.9,2.1,7.4,6.3,7.4h2.4v3.6h-23.4v-3.6h7.4v-50.6l-4.4,4.9-3-2.7,18.2-18.5,2.7,2.2-6.1,6.1v3.3c4.1-5.8,9.1-8.6,15.1-8.6s5.9.7,8.3,2.2v-6h3.6v29.4h-3.6Z"/>
    <path class="st0" d="M564.3,114.8c-7.5,0-12.6-2.4-15.1-7.1-.9-2.4-1.7-4.8-2.4-7.2-.7-2.3-1.1-4.8-1.1-7.5v-41.8h-7.2v-4.9h7.2v-23.2l5.2-7.5h2.2v30.8h13.5v4.9h-13.5v41.9c0,11.3,3.7,17,11.1,17s11.7-3.2,15.7-9.7l2.5,1.4c-2.4,8.7-8.5,13-18.2,13Z"/>
  </g>
  <g>
    <path class="st0" d="M678.8,92.2c-.8,3.7-2.5,7.3-5,11-2.5,3.8-6.5,7-11.9,9.6-5.5,2.7-12.5,4.1-20.9,4.1s-19.7-2.6-25.6-7.9c-5.9-5.2-9.6-10.5-11.3-15.7l-2-7.1c-.3-2.1-.5-3.7-.5-4.9,0-3.5.6-7.1,1.9-11,1-3.8,3.7-7.4,7.8-11,2.2-1.8,4.8-3.2,7.7-4.2,2.8-1,6.1-1.6,9.7-1.6s5.8.5,8.3,1.6c2.9,1.3,5.2,2.6,6.9,4.1,1.8,1.6,3.3,3.5,4.7,5.8,1.3,2.2,1.9,4.4,1.9,6.6s-1.2,5.4-3.5,7.4c-2.5,2.2-6.2,3.7-11,4.4v-3.8c4.6-2.1,6.9-5.1,6.9-8.9s-1.4-8.7-4.2-10.4c-2.9-1.7-6.4-2.5-10.5-2.5s-4,.5-6.8,1.4c-2.5.9-5.1,3.1-7.7,6.4-2.5,3.5-3.8,8.5-3.8,15.2s1.4,9.8,4.2,14.8c2.6,4.8,6.4,8.8,11.5,11.9,4.8,2.9,10,4.4,15.7,4.4s5.4-.3,8.8-.8c3.1-.5,6.2-1.7,9.3-3.6,3.5-2,6.3-4.9,8.6-8.8,2.3-3.9,3.5-8.9,3.5-15.2s-.7-6.9-2.2-10.4c-1.4-3-3.5-5.4-6.3-7.1-8.1-4.3-14.6-8.4-19.6-12.2-5.4-4-9.4-7.5-11.9-10.7-2.4-3-4.2-5.8-5.5-8.2-.9-2.2-1.4-4.1-1.4-5.8l.2-1.3.3-.9c0-7.3,2.5-12.3,7.4-15.1,4.9-2.5,9.9-3.8,14.9-3.8s7,1,9.6,3v-6.3h3.6v40.5h-3.6v-16.3c0-4.2-.8-7.9-2.4-11.1-1.6-3.3-4.9-5-9.9-5s-9.7,1.7-11.5,5.2c-1.8,3.6-2.7,6.4-2.7,8.6,0,3.9,1.5,7.6,4.4,11.3,3,3.8,7.4,7.1,13.2,9.9,1.6,1,4.5,2.7,8.8,5,4.7,2.7,8.5,5.1,11.3,7.2,2.9,2.2,5.7,5.2,8.2,9.1,2.3,3.7,3.5,8.2,3.5,13.5s-.4,6.1-1.1,9.4Z"/>
    <path class="st0" d="M746.3,102.2c-4.4,5.8-9.2,9.4-14.3,11-.5.2-1.5.5-2.8.9l-.6.2c-.6.1-1.7.3-3.1.5-.7.2-1.2.3-1.4.3-1.9.3-3.8.5-5.7.5-10.4,0-18.2-2.5-23.4-7.5-5.2-5.1-8.6-10.4-10.2-15.9-.7-2.5-1.3-5.1-1.6-7.7-.3-2.1-.5-4-.5-5.8l.8-6c.5-3.5,1.7-7,3.6-10.7,2-3.9,5.5-7.4,10.5-10.7,2.6-1.7,5.5-3,8.8-4.1,3.1-1,6.6-1.6,10.5-1.6l5.2.2c.6.1,1.2.2,1.7.2.8,0,1.4,0,1.7.2,1.2.3,1.9.5,2.4.5,4,.6,7.8,1.9,11.5,3.9,3.7,2,6.9,5.3,9.6,9.9,2.5,4.5,3.8,10.2,3.8,17.1,0,10.7-2.1,18.9-6.4,24.6ZM737,56.7c-6.3-3.5-13-5.2-20.3-5.2s-2.5.3-5.2.8h-.3c-.9.1-2.4.5-4.2,1.1-.1,0-.3.1-.6.3-1,.3-1.7.6-2,.8-.7.3-1.4.6-2,.9-3.2,1.6-6.3,4.3-9.1,8.2-1.4,2-2.4,4.2-3.1,6.6-.8,2.8-1.3,5.5-1.3,8v2.5c0,.7.1,1.8.3,3.3.2,1.4.7,3.4,1.4,6,1,4.4,3.8,8.7,8.3,12.9,4.2,4.2,10.6,6.3,19.3,6.3s12.9-2,19-6.1c6.1-3.9,9.1-12.2,9.1-25s-3.1-17.7-9.3-21.4Z"/>
    <path class="st0" d="M758.7,114.1v-3.6h7.4V15.9l-6.3,6-3.5-3.3,18.4-18.5,3.3,3-4.6,4.4v95.9c0,4.8,1.7,7.2,5,7.2h2.2v3.6h-22Z"/>
    <path class="st0" d="M826.2,114.1v-5c-3,4.9-7.9,7.4-14.6,7.4s-12.3-2.1-14.6-6.3c-2.5-4.3-3.8-8.4-3.8-12.2v-36.6c0-3-.9-5.1-2.8-6.1-1.9-.9-3.4-1.4-4.6-1.4h-2.5v-3.6h17.1v47.7c0,3,.7,6.3,2.2,9.7,1.5,3.5,4.4,5.2,8.9,5.2s6.5-.9,9.4-2.8c1.7-1.2,2.9-2.7,3.8-4.6.9-2.1,1.4-4.6,1.4-7.5v-37.4c0-2.8-.7-4.7-2.2-5.5-1.7-.8-2.9-1.3-3.8-1.3h-2.5v-3.6h17.1v53.2c0,3.1.7,5.3,2.2,6.4,1.5,1.2,2.7,1.7,3.6,1.7h2.7v2.5h-17.1Z"/>
    <path class="st0" d="M874.1,116.2c-7.5,0-12.6-2.4-15.1-7.1-.9-2.4-1.7-4.8-2.4-7.2-.7-2.3-1.1-4.8-1.1-7.5v-41.8h-7.2v-4.9h7.2v-23.2l5.2-7.5h2.2v30.8h13.5v4.9h-13.5v41.9c0,11.3,3.7,17,11.1,17s11.7-3.2,15.7-9.7l2.5,1.4c-2.4,8.7-8.5,13-18.2,13Z"/>
    <path class="st0" d="M892.4,114.1v-3.6h7.2v-54.2l-5.3,5.3-3.6-3.8,17-17,3.1,2.7-3.8,4.2v55.4c0,4.8,1.8,7.2,5.5,7.2h1.9v3.6h-22ZM907.4,24.8c-1.4,1.3-3.1,1.9-5.2,1.9s-3.6-.6-5.2-1.9c-1.5-1.3-2.2-3-2.2-5.3.2-1.9,1-3.4,2.5-4.6,1.4-1,3-1.6,5-1.6s3.6.6,5,1.7c1.5,1.2,2.2,2.6,2.2,4.4s-.7,3.9-2.2,5.3Z"/>
    <path class="st0" d="M984.3,102.2c-4.4,5.8-9.2,9.4-14.3,11-.5.2-1.5.5-2.8.9l-.6.2c-.6.1-1.7.3-3.1.5-.7.2-1.2.3-1.4.3-1.9.3-3.8.5-5.7.5-10.4,0-18.2-2.5-23.4-7.5-5.2-5.1-8.6-10.4-10.2-15.9-.7-2.5-1.3-5.1-1.6-7.7-.3-2.1-.5-4-.5-5.8l.8-6c.5-3.5,1.7-7,3.6-10.7,2-3.9,5.5-7.4,10.5-10.7,2.6-1.7,5.5-3,8.8-4.1,3.1-1,6.6-1.6,10.5-1.6l5.2.2c.6.1,1.2.2,1.7.2.8,0,1.4,0,1.7.2,1.2.3,1.9.5,2.4.5,4,.6,7.8,1.9,11.5,3.9,3.7,2,6.9,5.3,9.6,9.9,2.5,4.5,3.8,10.2,3.8,17.1,0,10.7-2.1,18.9-6.4,24.6ZM975,56.7c-6.3-3.5-13-5.2-20.3-5.2s-2.5.3-5.2.8h-.3c-.9.1-2.4.5-4.2,1.1-.1,0-.3.1-.6.3-1,.3-1.7.6-2,.8-.7.3-1.4.6-2,.9-3.2,1.6-6.3,4.3-9.1,8.2-1.4,2-2.4,4.2-3.1,6.6-.8,2.8-1.3,5.5-1.3,8v2.5c0,.7.1,1.8.3,3.3.2,1.4.7,3.4,1.4,6,1,4.4,3.8,8.7,8.3,12.9,4.2,4.2,10.6,6.3,19.3,6.3s12.9-2,19-6.1c6.1-3.9,9.1-12.2,9.1-25s-3.1-17.7-9.3-21.4Z"/>
    <path class="st0" d="M1029.8,114.1v-3.6h7.4v-42.9c-.4-5.2-1.9-9.4-4.6-12.4-2.5-2.9-5.4-4.4-8.8-4.4s-6.3,1.5-8.9,4.4c-2.6,2.9-4.2,7.2-4.7,12.7v35.2c0,4.9,2.2,7.4,6.8,7.4h3.1v3.6h-23.4v-3.6h6.1v-52.8l-5.3,5.2-2.7-2.7,17.9-17.9,2.7,2.5-5.2,5.5v3.6c3-2.4,5.8-4.3,8.3-5.7,2.4-1.3,4.9-1.9,7.5-1.9s5.1.6,8,1.9c2.9,1.3,5.4,3.5,7.4,6.8,2.1,3.4,3.1,7.5,3.1,12.4v36.6c0,4.3,1.9,6.4,5.8,6.4h2.8v3.6h-23.4Z"/>
    <path class="st0" d="M1108.3,103.6c-2.3,3.2-5.5,5.9-9.6,7.8-3.7,1.9-8,3.1-13,3.6-12.1,0-20.3-2.2-24.3-6.8-1.9-2.3-3.4-4.6-4.4-6.9-.6-1.5-1-2.6-1.1-3.5-.2-1.5-.3-2.6-.3-3.5,0-2.9.5-5.5,1.6-7.7,1.2-2.5,2.8-4.6,5-6.1,2.3-1.9,5.1-3,8.3-3.5,10.5,0,15.7,3.7,15.7,11s-.5,3.6-1.4,5c-1.3,1.6-2.4,2.6-3.5,3-2.8,0-4.2-1.3-4.2-3.8l.2-1.7.5-1.9c-.3-2.2-1.2-3.8-2.5-4.9-1.4-1-3.1-1.6-5.2-1.6s-3.7.4-5.2,1.3c-1.3.7-2.3,2-3.1,3.8-.6,1.5-1.1,2.8-1.4,3.9-.3,1.3-.5,2.3-.5,3.1,0,3,1.7,6.7,5,11,1.7,2,4.3,3.5,7.9,4.4,3.5,1,7.7,1.6,12.9,1.6l2.7-.2,3.6-.8c2.8-.6,5.6-2.4,8.3-5.3,2.8-3,4.2-7.3,4.2-12.7-.6-4-2.3-6.9-5-8.8-3-2-7-3.8-11.9-5.5l-.8-.2c-4.9-1.6-8.2-2.7-9.7-3.5-2.6-1.3-4.8-2.9-6.4-5-1.8-2.4-2.7-5.5-2.7-9.4s.8-4.8,2.4-7.1c1.5-2.2,3.7-4,6.8-5.5,3.1-1.5,6.4-2.2,9.7-2.2s7.8.8,11.9,2.5v-6.3h3.6v27h-3.6v-9.7c0-2.3-.8-4.6-2.4-6.8-1.8-2.1-5.2-3.1-10.2-3.1-7.2,0-10.8,3.7-10.8,11s1.1,4.2,3.3,5.7c3,1.4,7.2,3,12.6,5,6.3,2.3,11.4,5,15.4,8.2,3.7,3,5.5,7.4,5.5,13.2s-1.2,8.3-3.6,11.6Z"/>
  </g>
</svg>