<?xml version="1.0" encoding="UTF-8"?>
<svg id="Layer_1" xmlns="http://www.w3.org/2000/svg" version="1.1" viewBox="0 0 576.2 457.8">
  <!-- Generator: Adobe Illustrator 29.5.0, SVG Export Plug-In . SVG Version: 2.1.0 Build 137)  -->
  <defs>
    <style>
      .st0 {
        fill: #881d22;
      }

      .st1 {
        font-size: 87px;
        letter-spacing: 0em;
      }

      .st1, .st2 {
        fill: #231f20;
        font-family: CambridgeMedium, Cambridge;
      }

      .st2 {
        font-size: 157px;
      }

      .st3 {
        fill: #0c0d0e;
      }
    </style>
  </defs>
  <g id="ydS03H">
    <g>
      <path class="st3" d="M302.3,29.4l-1,71c-1.4-2.8-4.9-6.9-7-9.5-16-19.8-34.1-39.3-60.5-43.5-48.5-7.5-86.5,32-68.2,80.2,8.4,22.1,27.9,37.2,45.8,51.2,35.6,27.7,74.7,52.3,104.9,86.1,4.9,5.4,9.1,11.6,13.5,16.5s2.4.9,2.5,1c.1.2.2,3.1,1,4.4s1.7.7,2,1.6c2.3,7.3,6.4,14.3,8.5,22,19.9,72.1-40.9,142.1-112.1,147-54.3,3.7-96.2-21-126.9-64-6.8-9.4-12.2-19.8-18.6-29.4.4-1,2.5-.5,3.5-.5,13.2-.2,26,.4,39,1,5.1.3,10.3-.3,15.5,0,10.7,23.4,31,42.5,56.8,47.7,64.5,13.1,122.6-50,87.1-111.1-21.1-36.2-60.1-51.5-91.8-75.2-21.8-16.4-52.2-40.6-65.9-64.1C92.9,97.5,124.3,18.4,198,2.7c35.7-7.6,66.8,1.5,96.6,20.9s6.3,3.8,7.7,5.8Z"/>
      <path class="st0" d="M335.3,288.4c-.3-.9-1.6-.8-2-1.6-.8-1.3-.8-4.2-1-4.4,6.9-8.4,14.4-16.6,22.5-24,26.8-24.5,65.7-45.8,88.5-72.5,36.5-42.7,22.1-107.9-37.5-115.5-44.2-5.7-66.4,16.4-92.5,47.5s-6.6,9.3-10.5,13.5c-1-.4-.5-2.5-.5-3.5,0-6.2,1.1-23.1-1-27.5l1-71c0,.2.8,0,1,1.4.6,4.3-.1,10.4,0,15.1s-.5,2.4.5,2.5c7.3-4.6,14.6-9.7,22.2-13.8,62.2-34,145-12.7,164.9,59.8,16.5,60.3-20.3,105.2-68.2,135.9-12.9,8.2-26.7,15.2-39.7,23.3-16.7,10.4-32.7,22.1-47.7,34.8Z"/>
    </g>
  </g>
  <g>
    <text class="st2" transform="translate(0 350.6)"><tspan x="0" y="0">Care</tspan></text>
    <text class="st2" transform="translate(345.7 350.6)"><tspan x="0" y="0">mart</tspan></text>
    <text class="st1" transform="translate(338.5 422.4)"><tspan x="0" y="0">olutions</tspan></text>
  </g>
</svg>